<mxfile host="Electron" modified="2023-11-09T02:21:15.376Z" agent="Mozilla/5.0 (Windows NT 10.0; Win64; x64) AppleWebKit/537.36 (KHTML, like Gecko) draw.io/21.5.1 Chrome/112.0.5615.204 Electron/24.6.0 Safari/537.36" etag="owuAWpOPDGl2-Y7a_sDg" version="21.5.1" type="device">
  <diagram name="Page-1" id="9uodVBw46uwe-olfM1Yn">
    <mxGraphModel dx="1084" dy="1184" grid="1" gridSize="10" guides="1" tooltips="1" connect="1" arrows="1" fold="1" page="1" pageScale="1" pageWidth="827" pageHeight="1169" math="0" shadow="0">
      <root>
        <mxCell id="0" />
        <mxCell id="1" parent="0" />
        <mxCell id="CyXUGZc75xwbRx9VXkU0-19" style="edgeStyle=orthogonalEdgeStyle;rounded=0;orthogonalLoop=1;jettySize=auto;html=1;strokeWidth=3;strokeColor=#FF0000;" edge="1" parent="1">
          <mxGeometry relative="1" as="geometry">
            <mxPoint x="398.5" y="410" as="targetPoint" />
            <mxPoint x="398.5" y="236" as="sourcePoint" />
          </mxGeometry>
        </mxCell>
        <mxCell id="CyXUGZc75xwbRx9VXkU0-2" value="Attacker" style="sketch=0;outlineConnect=0;fontColor=#FF0000;gradientColor=none;fillColor=#232F3D;strokeColor=none;dashed=0;verticalLabelPosition=top;verticalAlign=bottom;align=center;html=1;fontSize=20;fontStyle=1;aspect=fixed;pointerEvents=1;shape=mxgraph.aws4.client;labelPosition=center;" vertex="1" parent="1">
          <mxGeometry x="374.5" y="160" width="78" height="76" as="geometry" />
        </mxCell>
        <mxCell id="CyXUGZc75xwbRx9VXkU0-18" value="data" style="edgeStyle=orthogonalEdgeStyle;rounded=0;orthogonalLoop=1;jettySize=auto;html=1;strokeColor=#00994D;strokeWidth=3;" edge="1" parent="1" source="CyXUGZc75xwbRx9VXkU0-12" target="CyXUGZc75xwbRx9VXkU0-16">
          <mxGeometry x="-0.7062" relative="1" as="geometry">
            <Array as="points">
              <mxPoint x="410" y="410" />
              <mxPoint x="410" y="410" />
            </Array>
            <mxPoint as="offset" />
          </mxGeometry>
        </mxCell>
        <mxCell id="CyXUGZc75xwbRx9VXkU0-12" value="Computer B" style="sketch=0;outlineConnect=0;fontColor=#232F3E;gradientColor=none;fillColor=#232F3D;strokeColor=none;dashed=0;verticalLabelPosition=top;verticalAlign=bottom;align=center;html=1;fontSize=20;fontStyle=0;aspect=fixed;pointerEvents=1;shape=mxgraph.aws4.client;labelPosition=center;" vertex="1" parent="1">
          <mxGeometry x="580" y="355" width="78" height="76" as="geometry" />
        </mxCell>
        <mxCell id="CyXUGZc75xwbRx9VXkU0-17" value="data" style="edgeStyle=orthogonalEdgeStyle;rounded=0;orthogonalLoop=1;jettySize=auto;html=1;strokeColor=#00994D;strokeWidth=3;" edge="1" parent="1" source="CyXUGZc75xwbRx9VXkU0-16" target="CyXUGZc75xwbRx9VXkU0-12">
          <mxGeometry x="-0.6945" relative="1" as="geometry">
            <Array as="points">
              <mxPoint x="410" y="370" />
              <mxPoint x="410" y="370" />
            </Array>
            <mxPoint as="offset" />
          </mxGeometry>
        </mxCell>
        <mxCell id="CyXUGZc75xwbRx9VXkU0-16" value="Computer A" style="sketch=0;outlineConnect=0;fontColor=#232F3E;gradientColor=none;fillColor=#232F3D;strokeColor=none;dashed=0;verticalLabelPosition=top;verticalAlign=bottom;align=center;html=1;fontSize=20;fontStyle=0;aspect=fixed;pointerEvents=1;shape=mxgraph.aws4.client;labelPosition=center;" vertex="1" parent="1">
          <mxGeometry x="160" y="355" width="78" height="76" as="geometry" />
        </mxCell>
        <mxCell id="CyXUGZc75xwbRx9VXkU0-21" style="edgeStyle=orthogonalEdgeStyle;rounded=0;orthogonalLoop=1;jettySize=auto;html=1;strokeWidth=3;strokeColor=#FF0000;" edge="1" parent="1">
          <mxGeometry relative="1" as="geometry">
            <mxPoint x="424.5" y="236" as="targetPoint" />
            <mxPoint x="424.5" y="410" as="sourcePoint" />
          </mxGeometry>
        </mxCell>
      </root>
    </mxGraphModel>
  </diagram>
</mxfile>
